# xmcd
# 
# Track frame offsets:
#     182
#     14580
#     26495
#     39212
#     53797
#     70172
#     84295
#     100050
#     121867
#     143227
#     160947
#     181790
# 
# Disc length: 2928
# 
# Revision: 7
# Processed by: cddbd v1.5.2PL0 Copyright (c) Steve Scherf et al.
# Submitted via: fre:ac v1.0.17
# 
DISCID=8d0b6e0c
DTITLE=Motorhead - Live At Brixton '87
DYEAR=2005
DGENRE=Heavy Metal
TTITLE0=Doctor Rock
TTITLE1=Stay Clean
TTITLE2=Traitor
TTITLE3=Metropolis
TTITLE4=Dogs
TTITLE5=Ace Of Spades
TTITLE6=Stone Deaf In The USA
TTITLE7=Eat The Rich
TTITLE8=Built For Speed
TTITLE9=Rock'n'Roll
TTITLE10=Deaf Forever
TTITLE11=Just 'Cos You Got The Power
EXTD=
EXTT0=
EXTT1=
EXTT2=
EXTT3=
EXTT4=
EXTT5=
EXTT6=
EXTT7=
EXTT8=
EXTT9=
EXTT10=
EXTT11=
PLAYORDER=
